<?xml version="1.0" encoding="UTF-8" standalone="no"?>
<!-- Created with Inkscape (http://www.inkscape.org/) -->

<svg
   xmlns:dc="http://purl.org/dc/elements/1.1/"
   xmlns:cc="http://creativecommons.org/ns#"
   xmlns:rdf="http://www.w3.org/1999/02/22-rdf-syntax-ns#"
   xmlns:svg="http://www.w3.org/2000/svg"
   xmlns="http://www.w3.org/2000/svg"
   version="1.1"
   width="50px"
   height="50px"
   viewBox="0 0 300 300"
   id="svg2"
   xml:space="preserve"><metadata
     id="metadata8"><rdf:RDF><cc:Work
         rdf:about=""><dc:format>image/svg+xml</dc:format><dc:type
           rdf:resource="http://purl.org/dc/dcmitype/StillImage" /><dc:title></dc:title></cc:Work></rdf:RDF></metadata><defs
     id="defs6"><clipPath
       id="clipPath16"><path
         d="M 0,792 1224,792 1224,0 0,0 0,792 z"
         id="path18" /></clipPath></defs><g
     transform="matrix(1.25,0,0,-1.25,0,286)"
     id="g10"><path
       d="m 126.87438,228.18681 c -0.24,-0.667 0.158,-1.2 0.24,-1.68 -0.262,-0.052 -0.383,-0.443 -0.48,-0.48 -0.869,-0.293 -1.98,0.225 -2.88,0 -0.481,-0.112 -1.162,-1.095 -1.68,-1.2 -1.11,-0.218 -1.702,0.51 -2.64,-0.24 -0.45,-0.345 -1.425,-3.398 -1.68,-4.08 -0.262,0.142 -0.45,-0.105 -0.72,0 -0.27,0.105 -0.622,0.825 -0.96,0.96 -2.198,0.892 -2.115,-0.915 -3.12,-1.68 -0.367,-0.27 -0.997,-0.27 -1.44,-0.48 0,0 -0.18,0.713 -0.24,0.96 0.285,0.262 1.088,0.555 1.2,0.96 0.068,0.27 -0.112,0.712 0,0.96 -0.21,0.165 -0.427,0.143 -0.48,0.48 -0.442,0 -1.012,-0.098 -1.44,0 -0.24,-0.33 -0.87,-0.81 -0.96,-1.2 -0.045,-0.165 0.105,-0.555 0,-0.72 -0.18,-0.255 -1.117,-0.45 -1.2,-0.72 -0.36,-1.088 0.24,-1.912 0.48,-2.64 l -0.48,0 c -0.352,-0.113 -1.057,-1.372 -0.96,-1.92 0.03,-0.195 0.645,-0.577 0.72,-0.72 0.083,-0.165 0.113,-0.848 0.24,-0.96 0.195,-0.172 0.555,-0.022 0.72,-0.24 -0.427,-0.907 -0.39,-1.305 -0.72,-2.4 -0.127,0.082 -0.592,0 -0.72,0 -0.63,1.335 -0.787,0.84 -0.48,2.88 -0.24,0.113 -0.75,0.668 -0.96,0.72 -0.72,0.195 -1.702,-0.203 -2.4,0 -0.24,0.075 -0.375,0.87 -0.72,0.96 -0.262,0.075 -1.155,-0.187 -0.96,-0.24 -0.292,-0.51 -0.645,-1.005 -0.96,-1.68 -0.037,-0.075 -0.457,-0.172 -0.48,-0.24 -0.157,-0.39 0.045,-1.162 -0.239,-1.44 -0.443,-0.405 -1.216,-0.105 -1.681,-0.48 -0.344,-0.262 -0.997,-3.742 -0.48,-4.08 0.743,-0.48 1.178,-0.023 1.68,0.24 0.375,0.203 0.173,0.465 0.24,0.96 0.158,-0.052 0.721,-0.24 0.721,-0.24 -0.136,-0.72 -0.188,-0.862 -0.241,-1.68 -0.262,-0.052 -0.382,-0.442 -0.48,-0.48 -0.727,-0.247 -1.89,0.188 -2.64,0 l -0.24,-0.48 c -0.39,-0.247 -0.734,-0.015 -1.2,-0.24 0.263,1.283 0.39,2.025 0.72,3.12 -0.45,0.188 -0.12,0.023 -0.24,0.48 -1.155,0.09 -2.167,0.465 -2.88,-0.48 -0.937,-1.223 -0.592,-2.46 0,-3.6 -0.48,-0.577 -1.312,-1.252 -1.44,-2.16 -0.044,-0.285 0.143,-0.945 0,-1.2 -0.052,-0.075 -1.087,-0.21 -1.199,-0.24 -0.075,-0.465 -0.06,-1.065 -0.241,-1.68 0.045,-0.007 0.863,-0.158 0.96,-0.24 0.263,-0.217 0.233,-1.005 0.48,-1.2 -0.524,0.015 -3.21,-0.232 -3.839,-0.72 -0.601,-0.45 0.315,-2.895 0,-3.84 -0.173,-0.502 -0.938,-1.012 -1.201,-1.44 -1.087,-1.74 -1.882,-3.052 -3.119,-4.56 -0.211,-0.247 -0.841,-0.48 -0.96,-0.96 -0.75,-2.947 0.72,-1.882 1.44,-2.159 0.165,-0.061 0.937,-0.773 1.199,-0.96 -0.442,-0.938 -1.529,-2.423 -0.719,-3.841 0.142,-0.255 0.81,-0.397 0.96,-0.719 0.157,-0.353 -0.338,-0.173 -0.241,-0.721 0.233,-1.409 1.808,-1.44 3.121,-1.44 -0.143,-0.052 -0.915,-0.705 -0.96,-0.719 -2.318,-0.683 -1.973,0.329 -2.88,-1.921 -1.073,1.418 -1.875,1.756 -4.08,2.16 -0.181,-0.375 -0.443,-0.464 -0.721,-0.719 0.435,-1.088 0.451,-1.613 0.961,-2.64 -0.383,-0.255 -1.155,-0.593 -1.441,-0.96 -0.27,-0.331 -0.187,-0.923 -0.48,-1.201 -0.247,-0.225 -0.667,-0.052 -0.959,-0.239 -0.308,-0.188 -0.728,-0.901 -0.96,-1.201 0.097,-0.165 0,-0.757 0,-0.96 1.215,-0.307 1.357,-0.442 2.879,-0.239 -0.134,-0.263 0.106,-0.435 0,-0.72 l -0.48,-0.241 c -0.517,-0.787 -0.27,-1.259 -0.48,-2.4 0.151,-0.082 0.871,-0.352 0.96,-0.48 0.676,-0.929 1.028,-1.717 1.681,-2.639 -0.473,-0.315 -1.755,-0.87 -1.92,-1.44 -0.128,-0.413 0.12,-0.78 0,-1.2 0.63,-0.165 1.739,-0.383 2.4,-0.721 0.142,-0.067 0.502,-0.659 0.72,-0.719 0.42,-0.105 0.772,0.112 1.2,0 -0.143,-0.548 -0.271,-1.08 -0.48,-1.92 -0.601,-0.023 -0.675,0.465 -1.44,0.239 -0.143,-0.037 -0.496,-0.607 -0.72,-0.719 0.915,-1.703 -0.113,-1.238 2.4,-1.44 0.232,-0.638 0.494,-1.373 0.719,-1.92 l 0.241,0 c 0.187,-1.013 -0.323,-1.365 -0.241,-2.4 0.061,-0.863 0.818,-2.595 0.96,-3.36 0.098,-0.555 -0.187,-1.148 0,-1.68 0.031,-0.098 0.42,-0.218 0.48,-0.48 1.988,0.705 0.601,-0.413 1.92,1.2 0.263,-0.128 0.435,0.112 0.721,0 0.067,-0.023 0.562,-0.683 0.72,-0.72 1.034,-0.233 1.184,0.442 2.159,0 1.058,-0.48 -0.112,-1.193 -0.24,-1.68 -0.074,-0.27 0.098,-0.69 0,-0.96 1.77,-1.268 2.423,-2.003 5.04,-1.92 0.136,0.33 0.24,0.885 0.48,1.2 0.18,0.255 0.781,0.27 0.961,0.48 l 0,-2.64 c 0.059,-0.293 1.394,-1.92 1.679,-2.4 0.645,0.052 1.26,0 1.92,0 0.075,0.157 0.338,0.93 0.48,0.96 2.16,0.487 2.738,-1.86 3.84,-2.16 0.683,-0.18 1.073,0.135 1.68,0.24 0.233,-0.285 0.353,-1.073 0.72,-1.2 0.255,-0.083 0.713,0.135 0.96,0 0.045,0.255 0.443,0.382 0.48,0.48 0.135,0.412 -0.12,0.787 0,1.2 -0.217,0.045 -1.29,0.075 -1.68,0.24 -0.42,0.187 -0.6,1.32 -0.96,1.44 l -0.48,0 c -0.127,0.262 0.128,0.713 0,0.96 0.165,0.262 0.578,0.667 0.72,0.96 0.315,-0.285 0.983,-0.33 1.2,-0.72 0.12,-0.225 -0.075,-0.705 0,-0.96 0.098,-0.368 0.75,-0.66 0.96,-0.96 0.458,0.09 0.975,-0.105 1.44,0 0.825,0.195 1.028,1.155 2.16,1.2 1.298,0.06 2.52,-1.193 4.32,-0.72 1.223,0.33 0.922,1.905 1.68,2.4 0.84,0.562 2.017,0.142 3.12,0.48 0.263,0.09 0.675,0.592 0.959,0.72 0,0.21 -0.096,0.78 0,0.96 0.128,0.262 0.556,0.165 0.721,0.48 1.125,-0.36 2.55,-1.148 3.84,-0.48 0.308,0.165 0.465,1.012 0.72,1.2 0.24,0.195 0.69,0.105 0.961,0.24 0.232,0.127 0.718,0.84 0.959,0.96 0.562,0.3 1.132,0.27 1.679,0.48 0,0 0.308,1.125 0.242,1.44 -0.091,0.367 -0.893,0.69 -0.96,0.96 -0.188,0.705 0.306,0.607 0.239,1.2 0.338,0.247 0.487,0.615 0.721,0.96 0.937,-0.128 2.001,-0.42 2.878,0 0.526,0.262 0.369,0.795 0.721,1.2 0.472,0.562 1.568,1.027 2.159,1.44 -0.104,0.78 -0.343,1.567 -0.239,2.16 0.09,0.54 0.96,1.05 1.2,1.44 0.307,0.517 0.225,0.892 0.48,1.44 -0.082,0.06 -0.691,0.39 -0.72,0.48 -0.112,0.277 0.135,0.465 0,0.719 1.912,1.358 2.272,2.085 0,3.361 1.425,0.742 2.662,1.5 4.079,2.159 -0.112,0.315 0,0.863 0,1.201 -0.284,0.134 -0.696,0.637 -0.959,0.72 -0.961,0.3 -1.553,-0.03 -2.16,0.48 -0.255,0.217 -0.143,0.795 -0.24,1.2 -0.532,-0.188 -0.367,0.667 -0.48,0.959 0.037,0 1.343,-0.089 0.96,-0.239 1.545,0.179 4.238,0.367 2.879,2.4 -0.127,0.187 -0.899,0.292 -0.959,0.48 -0.15,0.472 0.427,1.154 0.239,1.92 -0.157,0.607 -1.048,0.727 -1.2,0.959 -0.494,0.75 -0.712,0.968 0.24,1.44 -0.12,1.643 -0.202,1.576 0.721,2.4 0.052,0.053 0.645,0 0.72,0 0.038,0.27 0.022,1.373 0.239,1.681 l 1.441,0.719 c -0.33,1.006 -0.72,1.973 -0.481,2.64 0.061,0.195 0.683,0.78 0.721,0.96 0.09,0.556 -0.33,0.353 -0.24,0.721 -0.278,-0.061 -0.938,-0.241 -0.96,-0.241 -0.6,-2.017 -0.375,-2.715 -1.68,-0.96 -0.638,-0.075 -0.563,-0.307 -0.96,-0.48 0,0 -0.037,1.508 0,1.92 1.92,0.443 1.2,0.113 2.159,1.44 0.21,-0.15 0.466,0.098 0.721,0 0.247,-0.097 0.3,-0.832 0.479,-0.96 1.111,-0.787 2.604,-0.247 3.601,0 -0.113,0.466 0.128,0.991 0,1.44 -0.083,0.278 -0.877,0.84 -0.96,1.2 -0.068,0.27 -0.136,1.32 0.239,1.2 l 0,0.48 c -0.052,0.15 -0.689,0.645 -0.719,0.72 -0.06,0.143 0.06,0.593 0,0.72 1.777,0.78 2.01,0.915 2.88,2.64 l 0.48,0.48 c 0.075,0.525 -0.42,0.923 -0.24,1.68 0.089,0.42 0.885,0.938 0.96,1.44 0.067,0.532 -0.405,1.117 -0.241,1.92 0.098,0.48 1.088,1.29 1.2,1.68 0.143,0.525 -0.089,1.148 0,1.68 -1.575,0.923 -1.5,0.533 -1.679,2.88 0.39,0.247 0.142,0.21 0.239,0.72 l 0.481,0 c 0.022,-0.48 -0.045,-1.207 0,-1.92 0.044,0.008 1.334,0.045 0.959,0.24 0.091,0.285 0.48,1.23 0.721,1.44 0.029,0.038 0.007,0.675 0,0.72 -0.098,0.39 -0.713,0.862 -0.96,1.2 0.195,0.315 0.547,0.675 0.719,0.96 0.166,0.293 0.668,1.005 0.721,1.2 0.255,1.14 -0.465,2.093 -0.48,2.64 -0.038,0.96 0.584,1.455 0.48,2.64 l -0.48,0.72 c -0.548,2.655 -0.121,2.243 -2.64,2.88 -0.113,-0.48 -0.368,-1.372 -0.481,-1.92 -0.464,-0.12 -0.3,0.21 -0.479,-0.24 -0.84,0.038 -1.905,0.202 -2.4,0.24 0.105,1.837 -0.015,2.498 -0.48,4.08 -0.698,0.157 -1.883,0.817 -2.88,0.48 -0.181,-0.053 -0.465,-0.592 -0.72,-0.72 0,-0.555 0.082,-1.117 0,-1.68 l -0.48,0 c -0.241,0.503 0,0.765 -0.241,1.2 -0.336,0.593 -1.545,1.11 -1.679,1.92 -0.233,1.358 0.66,1.395 0.48,2.64 -0.053,0.337 -2.1,3.06 -2.4,3.12 -1.328,0.285 -1.523,-0.615 -2.16,-0.96 -0.781,-0.405 -1.687,-0.623 -2.4,-0.96 0.39,-1.575 1.313,-4.508 -1.679,-3.84 -1.058,0.24 -0.766,0.968 -1.202,1.92 -0.074,0.157 -0.689,0.322 -0.718,0.48 -0.219,1.103 0.584,2.063 0,3.12 -0.346,0.615 -1.208,0.428 -1.921,0.72 -0.053,-0.135 -0.675,-0.337 -0.72,-0.48"
       id="path3860"
       style="fill:#FFFFFF;fill-opacity:1;fill-rule:nonzero;stroke:none" /><path
       d="m 55.35538,197.94681 c -0.345,-0.337 0,-1.215 -0.24,-1.68 -0.225,-0.42 -1.492,-1.035 -2.4,-0.72 0,0 -0.45,1.283 -1.2,1.44 -0.698,0.15 -1.598,-0.225 -1.92,-0.24 l -0.24,-1.92 -1.2,-1.44 0.72,-0.24 c 0.465,-0.712 0.525,-0.997 0.96,-1.92 -0.255,0.12 -0.697,-0.09 -0.96,0 -0.825,0.285 -1.717,2.715 -2.64,3.12 -1.17,0.525 -3.187,0.465 -4.56,0.72 -0.247,-0.337 -0.615,-0.487 -0.96,-0.72 0.008,0 0,-0.682 0,-0.72 0.3,-0.075 0.383,-0.6 0,-0.48 -0.052,0.015 -0.202,0.405 -0.24,0.48 -0.667,0 -1.5,-0.022 -2.16,0 -0.285,-1.575 -0.96,-2.294 -1.68,-3.36 -0.292,0.225 -0.675,0.023 -0.96,0.24 -0.097,0.076 -0.457,0.893 -0.48,0.96 1.613,0.45 -2.707,-0.09 -0.96,-0.24 -0.39,-0.112 -0.667,-0.007 -0.96,-0.24 l -1.44,-1.68 c -0.375,-0.667 -0.18,-1.95 -0.96,-2.4 -0.36,-0.202 -1.395,-0.187 -1.68,-0.24 -1.177,-3.089 -1.012,-1.042 -2.88,-1.919 -0.307,-0.136 -0.45,-0.976 -0.72,-1.201 -0.247,-0.187 -0.697,-0.097 -0.96,-0.239 l -0.24,-0.48 c -1.049,-0.676 -2.04,-0.443 -3.12,-0.481 -0.142,-0.337 -0.232,-1.035 -0.48,-1.44 -0.412,-0.645 -1.275,-0.532 -1.92,-0.96 -0.825,-0.532 -2.782,-3.645 -3.359,-3.84 -0.076,-0.022 -1.013,0.27 -1.44,0.241 -0.886,-0.053 -2.393,-0.526 -3.12,-0.721 0,-1.259 0.105,-2.122 0.24,-3.12 -0.555,0.143 0.082,-0.27 -0.48,-0.239 l -0.48,0.48 c -0.81,0.217 -1.733,-0.563 -1.92,-0.96 -0.398,-0.833 -0.06,-1.576 0,-2.4 0.412,0 1.042,0.127 1.44,0 -0.218,-2.745 0.075,-2.783 -2.401,-2.64 -0.067,-0.158 -0.592,-0.608 -0.719,-0.72 0.277,-0.945 0.21,-1.381 0.48,-2.401 -0.105,0.016 -1.035,-0.179 -1.44,-0.239 0,0 0.105,1.245 -2.4,-0.48 0.352,-2.648 -0.878,-3.563 -0.48,-6.48 -0.705,-0.406 -1.515,-1.02 -2.16,-1.44 0.082,-0.42 -0.09,-0.773 0,-1.2 0.12,-0.601 0.87,-1.395 0.96,-2.16 0.09,-0.833 -0.008,-1.545 -0.24,-2.16 -0.008,-0.015 -0.48,-0.24 -0.48,-0.24 -0.27,-1.485 0.33,-3.255 0.48,-4.56 0.292,-0.098 0.615,0.015 0.72,-0.24 0.105,-0.255 -0.135,-0.705 0,-0.96 -0.173,-0.203 -0.818,-0.48 -0.96,-0.72 -0.78,-1.26 -0.038,-2.393 -0.24,-3.84 0,0 -0.428,-0.21 -0.48,-0.24 l 0,-0.48 c -0.068,-0.375 -0.3,-1.178 0,-1.92 0.06,-0.15 0.585,-0.345 0.72,-0.48 l 0,-0.48 c 2.482,-0.173 2.505,-0.195 3.84,1.44 0.18,-0.06 0.689,-0.255 0.72,-0.24 -0.105,-0.338 -0.45,-0.795 -0.48,-0.96 -0.075,-0.353 0.24,-1.44 0.24,-1.44 0.105,-0.075 0.675,-0.345 0.72,-0.48 0.179,-0.555 -0.053,-1.328 0,-1.92 -2.198,1.02 -3.63,0.81 -2.64,-1.92 0.12,-0.338 -0.023,-0.548 0.24,-0.72 0.435,-0.277 1.102,0.015 1.68,-0.24 0.149,-0.068 0.562,-0.93 0.72,-0.96 1.545,-0.285 2.167,1.282 2.64,2.16 0.27,-0.135 0.66,-0.465 0.96,-0.48 -0.833,-1.665 -0.503,-1.418 0,-2.88 -0.053,-0.023 0,-0.66 0,-0.72 -0.128,0.352 -0.263,-0.622 -0.24,-0.72 0.307,-1.425 2.279,-1.29 3.6,-1.2 -0.075,-0.12 0.045,-0.577 0,-0.72 -0.256,-0.645 -1.83,-1.335 -2.4,-1.68 0.142,-0.405 -0.15,-0.788 0,-1.2 0.082,-0.24 1.402,-1.372 1.679,-1.44 0.991,-0.24 2.753,0.39 3.36,0.72 0.225,0.127 0.623,0.908 0.961,0.96 0.764,0.127 1.034,-0.3 1.679,-0.48 -0.015,0 0,-0.683 0,-0.72 -2.992,-0.33 -3.779,-1.073 -2.16,-3.36 1.283,0.33 1.591,0.158 2.88,0.48 0.098,-0.787 0.316,-2.34 0.961,-2.64 0.434,-0.195 1.184,0.068 1.679,0 2.551,-0.345 2.61,-1.448 4.32,0.96 1.23,-0.135 1.988,-0.345 2.881,0 l 0.48,0.48 c 0.802,0.112 1.627,-0.435 2.159,-0.48 0.683,-0.045 0.923,0.24 1.44,0.24 0.15,0.607 0.27,1.133 0.48,1.92 -0.382,0.307 -0.772,0.457 -1.2,0.72 l 0,0.48 c 0.795,0.375 1.695,0.967 2.4,1.2 0.825,0.278 2.108,0.39 2.88,0 l 0.48,-0.48 c 1.237,-0.18 1.853,0.593 2.64,0.72 0.54,0.098 1.418,-0.21 1.92,0 0.735,0.322 0.69,1.815 1.2,2.4 0.533,0.63 1.74,0.922 2.4,1.44 -0.225,0.585 0.72,0 0.72,0 0.337,-2.182 -0.03,-1.815 2.16,-2.16 0.36,0.682 0.952,2.137 1.92,2.16 0.42,0.015 0.135,-0.33 0.72,-0.24 0.12,-0.337 -0.128,-0.855 0,-1.2 0.045,-0.128 0.6,-0.473 0.72,-0.72 0.263,0.105 0.683,-0.068 0.96,0 0.75,0.21 1.155,1.95 1.44,2.64 2.685,0.113 2.13,-0.135 3.12,1.68 1.072,-0.143 1.628,-0.067 2.64,0 0.052,0.263 0.443,0.382 0.48,0.48 0.18,0.525 -0.18,1.155 0,1.68 0.142,0.427 1.155,0.832 1.44,1.2 0.307,0.412 0.352,1.118 0.72,1.44 0.705,0.637 1.807,0.667 2.16,1.68 0.18,0.532 -0.105,1.125 0,1.68 0.045,0.285 0.69,1.155 0.72,1.44 0.18,1.83 -0.878,1.995 -1.92,2.64 -0.315,-0.42 -0.638,-0.787 -0.96,-1.2 0.6,-0.113 -0.72,-0.48 -0.72,-0.48 0.225,1.297 -0.188,1.26 1.2,2.16 0.555,0.367 0.915,0.33 1.44,0.72 0.158,0.127 0.292,0.637 0.48,0.72 0.817,0.397 1.815,0.03 2.64,0.48 0.382,0.217 0.18,0.967 0.48,1.2 -0.375,0.69 -0.09,0.795 -0.72,1.2 -0.36,0.232 -0.743,0.285 -1.2,0.48 0.255,0.172 0.427,0.847 0.72,0.96 0.69,0.277 1.387,-0.068 1.92,0.24 0.472,0.285 0.157,0.75 0.48,1.2 0.202,0.3 1.012,0.442 1.2,0.72 0.217,0.345 1.095,2.932 0.96,3.6 -0.083,0.382 -0.833,0.69 -0.96,0.96 -0.263,0.562 -0.053,0.945 -0.24,1.68 0.315,0.015 0.352,0.45 0.48,0.48 0.51,0.135 0.69,-0.413 0.96,-0.48 1.455,-0.33 1.762,0.525 2.4,0.96 -0.12,1.027 -0.278,2.295 -0.24,3.119 -1.14,0.578 -1.613,0.218 -1.68,1.92 -0.075,1.651 0.817,1.546 0.96,2.161 0.112,0.502 -0.233,1.342 -0.24,1.439 -0.18,2.116 0.585,2.333 0,4.321 0.322,0.119 0.862,0 1.2,0 0.72,1.537 0.63,0.907 0.24,2.639 -0.323,0.098 -0.758,0.061 -0.96,0.241 -0.533,0.494 -1.013,1.372 -1.44,1.92 1.035,0.824 1.77,1.642 2.88,2.4 -0.128,0.419 0.12,0.787 0,1.2 -0.045,0.142 -0.668,0.712 -0.72,0.96 -0.225,1.042 -0.105,1.71 -0.24,2.639 0.27,-0.007 1.305,-0.179 1.92,-0.239 0,0 0.285,1.109 0.24,1.44 -0.023,0.12 -1.148,3.067 -1.2,3.12 -0.24,0.224 -0.953,0.322 -1.2,0.48 0.352,1.109 1.17,3.105 -0.24,3.599 -0.413,0.151 -0.795,-0.142 -1.2,0 -0.173,-0.449 -0.293,-0.862 -0.48,-1.199 -1.2,-2.093 -0.21,-0.136 -1.2,-0.48 0,0.435 0.105,1.027 0,1.439 0.075,0.045 0.465,0.195 0.48,0.24 0.105,0.353 0.24,0.301 0.48,0.48 -0.195,0.525 -0.413,1.073 -0.48,1.44 -0.428,-0.202 -1.935,-0.832 -2.4,-0.72 -0.053,0.015 -0.6,0.69 -0.72,0.72 -0.278,0.075 -0.698,-0.097 -0.96,0 -0.188,-0.18 -0.75,-1.125 -0.96,-1.2 -0.262,-0.082 -0.72,0.135 -0.96,0 0.84,0 -0.473,3.105 -0.48,3.12 1.23,0.458 1.283,0.6 2.16,1.2 -0.113,0.42 0,1.013 0,1.44 -1.05,0.203 -1.26,0.345 -2.64,0.24 -0.308,0.63 -0.233,0.555 -0.72,0.96 -0.735,-0.45 -0.832,-0.75 -1.92,-1.2 -0.278,-2.437 -0.128,-2.407 1.92,-2.4 -0.495,-0.997 -0.405,-1.372 -0.72,-2.64 -0.6,0.795 -1.47,1.695 -2.4,2.16 l -0.24,0 c -0.412,0.833 -0.113,2.003 -0.24,2.88 0.51,0.098 0.45,0 0.72,0.24 0.352,0.331 1.17,0.578 1.44,0.96 0.112,0.165 0.195,1.005 0,0.72 -0.075,0.038 -0.345,0.893 -0.48,0.96 -1.14,0.593 -2.872,-0.232 -3.84,0 -0.683,0.173 -1.035,1.703 -1.68,1.92 l -0.48,0 c -0.135,-0.225 -0.555,-0.067 -0.72,-0.24"
       id="path3858"
       style="fill:#FFFFFF;fill-opacity:1;fill-rule:nonzero;stroke:none" /><path
       d="m 204.15338,194.82681 c -0.27,-0.412 -0.112,-0.645 -0.24,-1.2 -1.096,0.293 -1.553,0.195 -2.64,0.48 -1.462,-3.142 -0.937,-2.257 -4.56,-2.399 l -1.2,-0.481 c -0.188,-0.037 -0.427,0.21 -0.24,0.24 -0.337,0.15 -0.87,-0.142 -1.2,0 -0.307,0.135 -0.36,1.658 -1.679,1.2 -0.031,-0.007 -0.579,-0.915 0,-0.72 0,0 0.187,-1.177 0.239,-1.44 -1.102,-0.78 -0.93,-0.502 -1.68,-1.68 -0.713,0.21 -0.967,0.165 -1.44,0.48 -0.908,0.608 -0.427,1.133 -0.24,0.96 0.082,0.533 0.705,0.51 0.48,1.441 -0.06,0.224 -0.832,0.524 -0.96,0.719 -0.202,0.3 -0.127,0.578 -0.24,0.96 -0.082,-0.015 -0.847,0.18 -1.2,0.24 -0.097,-1.192 -0.195,-2.422 0,-3.84 -0.584,-0.06 -2.084,0.023 -2.879,-0.24 -0.346,-0.105 -1.096,-1.154 -1.441,-1.44 -0.3,0.135 -0.892,0 -1.2,0 -0.112,0.39 -0.157,0.818 -0.239,1.44 -0.675,0.173 -1.651,0.818 -2.88,0.48 -0.151,-0.037 -0.646,-0.69 -0.721,-0.72 l -0.48,0 c -1.74,-1.695 0.953,-2.077 1.92,-2.64 0.3,-0.172 0.661,-0.772 0.961,-0.959 -0.399,-0.271 -0.661,-0.443 -0.961,-0.721 -1.05,0.743 -2.219,1.62 -4.08,0.96 -0.405,-0.135 -0.794,-0.847 -1.2,-0.96 -0.458,-0.12 -0.982,0.091 -1.439,0 -0.248,0.953 -0.774,2.843 -1.92,2.88 -0.375,0.015 -0.705,-0.375 -1.2,-0.48 -0.061,-0.255 -0.45,-0.375 -0.481,-0.48 -0.224,-0.637 -0.194,-1.687 -0.239,-2.159 -1.755,-0.451 -2.948,-0.96 -5.041,-1.201 -0.352,-0.944 -0.584,-1.582 -0.959,-2.4 l -0.48,0 0,0.48 c -0.405,1.155 -1.576,0.653 -2.4,0.48 -0.307,-1.83 -0.78,-2.205 -1.44,-3.6 -2.047,0.683 -1.59,0.645 -3.12,0 0,-0.435 0.097,-1.005 0,-1.44 l 0.719,-0.239 c -0.008,0 0,-0.683 0,-0.721 -1.215,0.181 -1.889,0.038 -2.88,0 -0.089,-0.54 -0.667,-0.472 -0.479,-1.44 0.008,-0.052 0.758,-0.937 0.72,-0.959 -0.683,-0.286 -1.02,-1.92 -1.201,-2.641 -1.987,-0.502 -2.918,-0.442 -4.319,-1.44 0.082,-0.54 -0.187,-1.162 0,-1.68 0.164,-0.449 1.364,-0.802 1.68,-1.199 0.375,-0.473 0.458,-1.605 0.96,-1.92 0.548,-0.346 1.072,0.075 1.44,0 0.052,-0.008 0.254,-0.443 0.48,-0.48 -0.008,-0.015 -0.428,-1.426 -0.241,-1.44 -1.597,0.179 -2.069,0.157 -3.599,-0.241 0.105,1.125 0.382,2.746 -0.72,3.121 -0.27,0.097 -0.713,-0.113 -0.961,0 -0.059,-0.255 -0.449,-0.375 -0.479,-0.48 -0.383,-1.11 0.517,-1.56 0.24,-2.641 -0.157,-0.577 -3.428,-3.27 -4.08,-4.08 0.285,-0.27 0.112,-0.449 0.239,-0.96 0.578,-0.149 1.554,-0.599 2.161,-0.719 -2.761,-0.683 -4.117,-1.665 -2.881,-4.32 -0.832,-0.593 -2.894,-2.82 -2.639,-4.32 0.052,-0.33 0.877,-0.72 0.96,-0.96 0.091,-0.263 -0.119,-0.705 0,-0.96 -0.526,-0.3 -3.24,-2.31 -3.36,-2.64 -0.166,-0.428 0.097,-0.983 0,-1.44 0.105,-0.023 0.78,-0.135 0.959,-0.24 0.181,-0.105 0.099,-0.63 0.242,-0.72 -0.383,-0.645 -1.5,-1.5 -1.681,-2.16 -0.277,-0.998 0.45,-2.805 -0.481,-3.12 -0.539,-0.173 0.721,-1.44 0.721,-1.44 l 0,-0.24 c 0.165,-0.082 0.622,-0.832 0.72,-0.96 0.247,-0.345 0.412,-0.45 0.721,-0.72 -0.511,-0.743 -1.742,-1.995 -1.201,-3.6 0.053,-0.173 0.592,-0.458 0.72,-0.72 0.668,0.112 1.192,0.225 1.68,0.24 l 0,-2.4 c 0.052,0.525 0.014,-2.513 0.24,-2.88 0.149,-0.247 1.155,-0.278 1.439,-0.48 0.166,-0.12 0.255,-0.818 0.481,-0.96 0.548,-0.338 1.642,-0.548 2.159,-0.72 0,-0.623 -0.217,-1.815 0,-2.4 0.256,-0.705 1.403,-0.645 2.161,-0.96 0.24,0.353 0.683,0.607 0.959,0.96 0.219,0.293 0.316,0.675 0.481,0.96 0.195,-0.578 0.712,-2.265 1.2,-2.64 0.84,-0.652 1.724,-0.39 2.88,-0.24 -0.105,-0.165 0.038,-0.54 0,-0.72 -0.068,-0.255 -0.998,-0.997 -1.2,-1.2 0.217,-0.307 0.345,-0.892 0.48,-1.2 0.787,0 1.47,0.105 2.399,0 0.375,-0.038 0.96,-0.69 1.921,-0.48 0.209,0.053 0.75,0.893 0.959,0.96 0.263,0.098 0.698,-0.105 0.961,0 1.372,-1.942 0.48,-2.048 3.36,-2.64 0.802,1.148 1.529,3.593 3.839,3.12 0.136,-0.023 0.706,-0.9 0.96,-0.96 0.893,-0.188 1.388,0.518 2.401,0.24 0.232,-0.06 0.502,-0.825 0.72,-0.96 0.382,-0.233 0.772,0.008 1.2,-0.24 0.239,-0.134 0.277,-0.817 0.479,-0.959 0.413,-0.293 3.383,-1.463 4.321,-1.201 0.412,0.127 0.668,1.073 1.2,1.201 1.282,0.322 1.875,-0.548 3.12,-0.241 0.847,0.217 1.387,1.875 1.68,2.64 3.284,-0.442 2.197,-0.075 4.08,1.2 0.382,0.27 0.846,0.217 1.2,0.48 0.209,0.165 0.471,0.885 0.72,0.96 0.974,0.322 2.114,-0.247 3.119,0 0.42,0.112 0.855,0.743 1.201,0.96 -0.076,0.398 -0.256,1.08 -0.24,1.2 -0.571,0.262 -1.186,0.713 -1.681,0.96 0.803,-0.06 1.913,-0.315 2.4,-0.24 0.848,0.135 2.977,1.777 3.119,2.64 0.121,0.78 -1.101,1.733 0,2.16 0.586,0.233 1.524,-0.097 2.162,0 0.562,0.09 1.649,0.772 2.159,0.96 -0.113,0.315 0,0.863 0,1.2 -1.635,0.772 -1.95,0.832 -3.6,-0.24 l -0.24,-0.48 c -0.848,-0.142 -0.683,0.443 -1.199,0.48 0.059,0.367 0.247,1.117 0.239,1.2 1.897,-0.18 2.82,-0.18 3.84,0.96 1.815,2.04 0.788,2.625 -1.441,3.36 0.128,0.27 -0.112,0.443 0,0.72 0.099,0.27 0.864,0.697 0.96,0.96 0.091,0.27 -0.111,0.705 0,0.96 l 0.481,0 c 0.046,-0.023 0,-0.87 0,-0.96 0.315,-0.158 0.562,-0.158 0.721,-0.48 1.282,0.427 3.449,1.282 3.599,2.64 0.21,2.055 -2.287,2.003 -3.599,1.92 0.562,1.372 0.734,2.115 0.479,3.84 0.569,0.21 0.833,0.112 1.439,0.24 0.053,0.262 0.443,0.382 0.481,0.48 0.435,1.275 -0.061,1.215 0.72,2.16 0.299,0.375 0.825,0.637 1.2,0.96 -0.06,-0.21 -0.465,-0.833 -0.481,-0.96 -0.12,-0.795 0.451,-0.998 0.242,-1.68 -0.083,-0.24 -1.006,-0.78 -1.201,-0.96 0.105,-0.308 0,-0.855 0,-1.2 1.177,-0.225 1.058,-1.08 2.4,0.24 0.428,0.435 0.24,0.795 0.48,1.44 0.225,-0.143 0.704,0.105 0.959,0 0.188,-0.075 0.407,-1.005 0.481,-1.2 0.952,0.457 2.189,0.57 2.639,1.44 0.106,0.217 0.736,3.412 0.721,3.6 -0.037,0.397 -0.653,0.765 -0.48,1.68 0,0 1.088,1.897 1.2,2.16 -0.832,0.225 -1.028,0.532 -1.92,0.719 0.127,0.083 -0.135,0.645 0,0.721 0.352,0.21 0.833,0.157 1.2,0.24 -0.016,0.269 -0.158,1.447 0,1.92 0.06,0.202 0.779,0.577 0.96,0.72 -0.562,1.192 -0.705,1.882 -1.2,3.12 0.517,0.247 0.968,0.165 1.44,0.48 0.188,0.134 0.495,0.877 0.72,0.96 0.757,0.307 1.478,0.015 2.159,0.239 0.444,0.158 0.743,0.728 1.441,0.721 1.477,-0.016 1.785,-1.53 2.16,-2.641 0.217,0.128 0.803,0.488 0.96,0.48 -0.098,1.29 0.067,1.808 0.24,2.881 0.045,0.284 -0.226,0.615 -0.24,0.48 l 0,0.72 c 0.825,0.652 1.567,1.274 2.4,1.919 -0.09,0.466 0.119,0.991 0,1.44 l -0.48,0.48 c 0,0 -0.218,0.435 -0.24,0.481 -0.78,-0.113 -1.658,-0.473 -2.4,-0.24 -0.12,0.037 -0.525,0.629 -0.72,0.72 0.563,0.914 0.712,1.237 1.44,1.92 -0.323,1.259 -1.162,4.815 -0.96,5.999 0.149,0.938 1.635,1.651 1.92,2.401 0.69,1.897 -0.592,6.247 -1.68,6.719 -1.141,0.495 -2.468,-0.285 -3.6,0.241 -0.36,0.172 -0.241,0.869 -0.48,1.199 -0.495,0.683 -1.5,0.458 -2.16,0.96 -0.765,0.578 -1.583,3.525 -2.401,3.84 -0.254,0.098 -0.508,-0.15 -0.719,0 -0.435,-2.392 -0.352,-2.295 -2.64,-2.88 -0.173,0.315 -0.232,0.848 -0.479,1.2 -0.188,0.263 -1.125,0.473 -1.202,0.72 -0.276,0.9 0.519,1.373 0.241,2.4 -0.105,0.36 -0.938,0.728 -1.201,0.96 0,0 0.218,0.45 0.242,0.48 0.584,-0.045 1.357,0.188 1.92,0 0.479,-0.157 0.832,-1.282 1.439,-1.44 3.045,-0.772 2.407,1.47 1.2,2.4 -0.809,0.63 -1.514,0.885 -2.4,1.44 l -0.48,-0.24 z"
       id="path3856"
       style="fill:#FFFFFF;fill-opacity:1;fill-rule:nonzero;stroke:none" /><path
       d="m 114.39438,130.98781 c 0.008,-0.128 0,-3.12 0,-3.12 -0.12,-0.18 -0.607,-0.292 -0.72,-0.48 -0.105,-0.158 -0.113,-1.088 -0.24,-1.2 -0.36,-0.293 -0.6,-0.127 -1.2,-0.24 0.3,-0.157 -0.57,-0.285 -0.72,-0.24 -0.112,0.038 -0.232,0.405 -0.48,0.48 0.165,1.26 0.48,2.663 -0.72,3.12 -0.48,0.188 -0.555,-0.338 -1.2,-0.24 -0.202,0.037 -0.765,0.682 -0.96,0.72 -1.897,0.412 -2.715,-0.855 -3.6,-1.44 -0.24,0.157 -0.465,-0.098 -0.72,0 -0.367,0.142 -0.622,1.043 -0.96,1.2 -0.847,0.405 -2.97,0.232 -3.84,-0.24 -1.147,-0.615 -0.54,-3.187 -1.2,-4.32 -0.105,-0.173 -1.657,-1.425 -1.919,-1.68 -0.278,0.262 -1.178,1.365 -1.44,1.44 -2.506,0.72 -4.043,-3.57 -5.281,0.96 -0.134,0.015 -0.922,0.368 -1.44,0.24 l -0.239,-0.48 c -0.795,-0.51 -1.455,-1.552 -0.241,-2.16 0.203,-0.098 -0.337,-0.263 -0.239,-0.48 -0.525,-0.135 -1.156,-0.578 -1.681,-0.48 -0.614,0.128 -0.54,1.185 -1.919,0.96 -0.338,-0.053 -2.01,-1.642 -2.16,-1.68 -0.533,-0.112 -1.651,0.158 -2.401,0.24 l -0.239,-0.72 c -1.898,-0.495 0.157,0.975 0.48,1.2 -0.068,0.367 -0.255,1.117 -0.241,1.2 -0.967,0.15 -1.252,0.105 -2.159,0.24 -0.068,-0.315 -0.285,-0.323 -0.48,-0.48 0.247,-0.975 0.24,-1.388 0.48,-2.16 -0.608,-0.277 -1.418,-0.15 -1.68,-0.72 -0.233,-0.472 -0.203,-1.815 -0.24,-2.16 -0.488,0.15 -0.48,-0.382 -0.96,-0.24 -0.315,0.097 -0.495,1.065 -0.96,1.2 -1.253,0.375 -2.385,0.075 -3.6,0.24 -0.195,-2.415 -1.313,-3.975 -2.4,-5.52 -0.113,0.083 -0.607,0 -0.72,0 -0.503,1.065 -0.435,0.855 -0.72,2.4 -0.405,0.112 -0.375,-0.18 -0.48,0.24 -0.248,-0.128 -0.705,0.09 -0.96,0 -0.113,-0.03 -0.233,-0.39 -0.48,-0.48 0,-0.007 0.023,-1.125 0.24,-0.72 -0.06,-0.232 -0.24,-0.96 -0.24,-0.96 -0.555,-0.082 -1.162,0.18 -1.68,0 -0.345,-0.113 -0.623,-1.05 -0.96,-1.2 -1.755,-0.765 -3.285,0.248 -4.56,0.72 -0.51,-0.69 -0.87,-0.825 -1.2,-1.92 0.008,0.187 0.09,1.613 0,1.92 -0.045,0.143 -0.443,0.18 -0.48,0.48 -0.345,-0.12 -0.863,0.128 -1.2,0 -0.187,-0.06 -0.63,-0.533 -0.96,-0.72 -0.232,0.15 -0.48,0.833 -0.72,0.96 -0.345,0.18 -2.835,0.645 -3.36,0.48 -0.045,-0.007 -0.195,-0.435 -0.24,-0.48 -1.403,-1.23 -0.675,-0.938 -0.48,-2.4 l 0.24,-0.96 c 0.007,0.007 1.125,0.03 0.72,0.24 0.278,0 0.675,-0.015 0.96,0 0,-0.075 -0.037,-0.945 0,-0.96 -0.57,0.113 -0.397,-0.344 -0.96,-0.24 -0.195,0.037 -0.765,0.922 -0.96,0.96 -0.742,0.157 -3.315,-0.652 -3.84,-0.96 -0.24,-0.135 -0.067,-0.547 -0.24,-0.721 -0.292,-0.276 -0.825,-0.239 -1.2,-0.479 -0.157,-0.09 -0.33,-0.659 -0.48,-0.72 -0.143,-0.053 -0.592,0.075 -0.72,0 -0.173,0.443 -0.36,-0.008 -0.48,0.24 -0.097,0.196 0,0.75 0,0.959 -0.42,0.099 -0.135,0.091 -0.24,0.481 -0.42,0 -1.05,-0.119 -1.44,0 -0.532,-0.742 -1.125,-1.747 -1.92,-2.16 -1.162,-0.592 -3.9,-0.728 -4.56,-1.68 -0.255,-0.352 0.008,-0.6 -0.24,-0.96 -0.42,0.15 -0.187,-0.269 -0.24,-0.48 -0.615,0.187 0,-0.72 0,-0.72 0.631,-0.188 0.78,0.256 1.44,0.24 0,-0.029 -0.007,-0.713 0,-0.72 -0.592,-0.172 -0.54,-0.075 -1.2,-0.24 0.36,-0.248 -0.675,-0.224 -0.72,-0.24 l -0.24,1.2 c -0.165,0.098 -1.132,-0.128 -1.2,0 -0.202,0.398 0,1.463 0,1.92 -2.572,0.57 -1.747,0.413 -2.88,-1.68 -0.045,-0.075 -0.72,-0.698 -0.72,-0.719 -0.195,-0.856 0.353,-1.613 0.24,-2.161 -0.06,-0.255 -0.637,-0.48 -0.72,-0.719 -0.292,0.127 -0.877,0 -1.2,0 0.038,0.675 0.105,0.952 0.24,1.679 -0.21,0.165 -0.427,0.143 -0.48,0.48 -0.457,-0.023 -1.679,-0.24 -1.679,-0.24 -0.016,-0.015 -0.683,-0.195 -0.721,-0.24 -0.337,-0.323 -0.15,-1.342 -0.48,-1.679 -0.48,-0.474 -1.424,-0.286 -1.92,-0.721 -0.165,-0.135 0,-0.615 -0.239,-0.72 -0.338,-0.128 -0.87,0.135 -1.201,0 0.248,0.12 -0.479,0.48 -0.479,0.48 0.044,0.075 0.479,0.721 0.479,0.721 0.855,0.261 1.695,0.126 2.161,0.719 0.045,0.06 0.48,0.72 0.48,0.72 0.082,0.36 -0.241,1.44 -0.241,1.44 -2.272,0 -3.585,-0.27 -4.799,-1.92 -0.203,-0.262 -0.203,-0.833 -0.48,-0.959 -0.735,-0.323 -1.576,0.104 -2.161,-0.241 -0.307,-0.173 -1.214,-3.03 -0.96,-3.84 0.053,-0.165 0.601,-0.465 0.721,-0.72 0.435,0 1.005,0.105 1.44,0 -0.031,-0.045 -0.293,-0.465 -0.241,-0.48 -1.837,-0.322 -1.897,-0.727 -2.639,-2.16 -2.393,0 -2.768,-0.194 -3.36,-1.92 l 0,-0.48 c -0.488,-0.39 -1.41,-0.119 -1.921,-0.48 -1.177,-0.817 -0.239,-4.177 -0.239,-6.239 1.042,-0.286 2.527,-0.773 2.88,-1.681 0.097,-0.255 -0.158,-0.48 0,-0.719 -0.563,-0.391 -3.735,-3.21 -3.84,-3.6 -0.225,-0.766 0.172,-1.269 0.24,-1.92 0.314,0.015 0.794,-0.36 1.439,-0.241 0.511,0.105 0.631,0.743 0.96,0.961 0.008,0 1.066,-0.375 0.721,-0.481 0.15,-0.112 0.637,-0.314 0.72,-0.48 0.27,-0.539 0.052,-0.945 0.24,-1.68 -0.33,-0.059 -0.353,-0.457 -0.48,-0.72 -0.263,0.128 -0.548,0.667 -0.72,0.72 -0.51,0.173 -1.155,-0.075 -1.68,0 -0.255,-0.779 -1.08,-2.212 -0.96,-3.12 0.015,-0.149 0.675,-0.614 0.719,-0.72 0.361,-0.809 -0.067,-0.824 0,-1.679 -0.307,0.157 -0.194,-0.369 -0.719,-0.241 -0.06,0.015 -0.27,0.428 -0.48,0.481 0.952,0.359 -1.343,0.359 -0.72,0.24 l -0.24,-0.961 c 0.96,-0.584 2.707,-1.004 3.36,-1.92 0.36,-0.51 0.247,-1.289 0.72,-1.679 0.75,-0.623 1.68,-0.255 1.92,-1.44 0.269,-1.373 -0.683,-1.77 -0.48,-2.881 0.105,-0.606 1.2,-0.952 1.44,-1.439 0.179,-0.383 0.457,-1.725 0.48,-1.92 0.097,-1.08 -0.278,-3.766 0.24,-5.04 l 0.24,0 c 0.719,-0.361 1.244,-1.688 1.92,-1.92 l 0.48,0 c 0.12,-0.106 0.074,-0.631 0.239,-0.72 0.533,-0.27 1.125,0.068 1.681,-0.24 0.442,-0.247 2.384,-2.985 1.44,-3.84 1.192,-0.937 3.607,-1.553 3.359,-3.84 -0.007,0 -0.63,-0.99 -0.719,-1.2 0.299,0.157 0.187,-0.367 0.719,-0.24 0.263,0.067 0.33,0.697 0.48,0.96 0.188,0 0.795,-0.098 0.96,0 0.503,-0.488 2.453,-1.949 0.721,-2.4 -0.173,0.209 -0.48,0.877 -0.721,0.959 -0.27,0.099 -0.712,-0.112 -0.96,0 -0.12,-0.232 -0.532,-0.554 -0.719,-0.719 0,0 0,-0.877 0.239,-0.481 0.165,-0.547 0.105,-0.396 0.241,-0.959 0.48,0.225 0.239,-1.68 0.239,-1.68 1.448,0.472 1.966,0.6 3.6,0.48 0.038,0.083 0.195,0.473 0.24,0.48 0.218,0.06 1.178,-0.18 0.96,-0.241 0.361,-0.614 0.78,-1.138 1.2,-1.679 -1.102,-0.33 -2.384,-0.368 -2.64,-1.44 -0.037,-0.12 0.06,-0.607 0,-0.72 -0.15,-0.24 -0.869,-0.442 -0.96,-0.72 -0.127,-0.337 0.12,-0.855 0,-1.2 0.435,0.209 0.803,0.022 1.2,0.24 0.443,0.256 0.788,1.118 1.2,1.44 0.81,0.66 1.605,1.02 2.401,1.68 0.554,-0.81 1.214,-1.943 1.919,-2.64 0.293,-0.293 1.283,-0.586 1.44,-0.961 0.278,-0.696 -0.292,-0.891 -0.24,-1.439 l 0.48,-0.72 c 0.353,-1.755 0.098,-1.32 0.72,-2.641 0.263,0.106 0.683,-0.067 0.96,0 0.66,0.181 1.388,1.253 1.92,1.681 1.808,-1.636 3.33,-2.948 6.24,-1.44 -0.157,-1.425 -0.315,-2.834 0.96,-3.36 0.383,-0.157 0.735,0.068 0.96,-0.24 0.165,-0.225 0.608,-1.891 0.72,-2.16 2.723,0.405 3.443,0.075 5.28,-0.96 0.368,0.232 1.35,1.305 1.92,1.2 0,0 -0.188,-1.163 -0.24,-1.439 0.172,-0.114 1.342,-0.788 1.44,-0.961 0.195,-0.375 -0.098,-1.02 0,-1.44 0.09,-0.412 1.147,-1.17 1.2,-1.44 0.097,-0.555 -0.352,-0.892 -0.48,-1.441 0.66,0.151 1.665,0.601 2.4,0.481 0.675,-0.106 1.185,-1.132 1.68,-1.44 0.383,-0.24 0.772,0.008 1.2,-0.24 0.652,-0.375 1.86,-2.894 2.16,-3.84 0.907,0.3 2.572,0.72 3.6,0.72 0.3,0.008 0.817,-0.48 1.44,-0.24 l 0,0.24 c 0.39,0.202 0.427,0.765 0.72,0.96 0.39,0.271 0.742,0 1.2,0.24 0.72,-2.378 -0.225,-1.515 2.16,-2.16 0.052,0.082 0.382,0.691 0.48,0.72 0.27,0.112 0.457,-0.135 0.72,0 0.202,-0.165 0.487,-0.832 0.72,-0.959 0.667,-0.361 2.602,-0.391 3.36,-0.481 0.082,-0.54 -0.188,-1.163 0,-1.68 0.367,-1.02 4.822,-1.845 6.24,-2.159 0.105,-0.421 -0.113,-0.774 0,-1.201 0.007,-0.037 2.092,-2.13 2.16,-2.16 2.107,-0.952 2.174,0.675 3.12,0.96 1.92,0.593 2.625,-0.548 3.359,-0.96 0.391,-0.218 0.758,-0.03 1.201,-0.24 0.134,0.352 0.397,0.322 0.719,0.48 -0.187,1.342 -0.12,2.078 -0.239,2.88 0.382,-0.097 0.577,0.128 0.96,0.241 0.21,-0.368 0.802,-1.771 1.199,-1.921 1.358,-0.509 3.143,0.45 4.08,0.48 1.613,0.067 1.815,-0.532 2.641,-1.2 2.25,0.99 2.437,0.053 5.039,0.48 0.24,0.045 1.298,0.705 1.44,0.72 0.833,0.136 1.643,-0.33 2.16,-0.239 0.225,0.044 0.705,0.606 0.96,0.719 -0.112,0.427 0.105,0.781 0,1.2 -0.022,0.09 -2.4,3.495 0.72,2.64 0.105,-0.022 0.533,-0.682 0.72,-0.72 0.488,-0.089 0.735,0.286 0.96,0.24 -0.255,0.195 0.195,1.035 0.24,1.2 -0.27,0.143 -0.105,0.42 -0.24,0.48 -0.427,0.21 -0.795,0.142 -1.2,0.241 0.03,0.487 -0.262,0.719 -0.24,0.959 0.06,0.862 1.515,1.305 1.92,1.921 0.3,0.479 0.165,1.17 0.48,1.679 0.36,0.616 3.188,1.845 4.32,1.68 0.113,-0.015 0.668,-0.697 0.72,-0.721 0.248,-0.082 0.727,0.136 0.961,0 0.322,-0.187 0.607,-1.056 0.958,-1.199 0.181,-0.067 0.534,0.12 0.721,0 0.21,2.715 0.097,2.085 2.159,2.16 -0.029,-0.637 0.151,-1.537 0,-2.16 -0.013,-0.022 -0.681,-0.442 -0.718,-0.48 0.434,-1.62 -0.099,-1.147 0.959,-2.159 -0.254,-0.076 -0.375,-0.443 -0.48,-0.481 -0.375,-0.12 -0.817,0.112 -1.2,0 0.383,-0.143 -0.922,-0.232 -0.96,-0.24 -0.061,0.173 -0.106,0.517 -0.239,0.721 -1.194,1.769 -0.893,1.679 -3.841,1.679 -0.165,-0.466 -0.165,-1.253 -0.48,-1.679 -0.27,-0.346 -1.11,-0.421 -1.44,-0.721 -0.36,-0.315 -0.225,-0.233 -0.48,-0.72 0.008,0 0,-0.683 0,-0.72 0.165,0 0.818,0.106 0.96,0 -0.015,-0.082 0.173,-0.832 0.24,-1.2 -1.185,0 0.09,-1.882 0.24,-2.16 -0.787,-0.615 -1.44,-1.253 -2.16,-1.92 0.128,-0.42 0.3,-0.517 0.24,-0.96 2.498,-1.462 2.993,-1.2 4.32,1.2 0.158,-0.195 0.795,-0.255 0.96,-0.479 0.21,-0.286 0.045,-0.653 0.241,-0.961 0.966,-1.567 2.137,-0.81 3.359,-0.239 -0.202,1.814 -0.037,2.137 0.24,3.359 0.233,-0.135 0.705,0.112 0.96,0 0.36,-0.15 0.683,-1.305 1.2,-1.44 1.807,-0.45 2.062,0.915 2.88,1.44 0.42,0.278 0.765,0.03 1.199,0.24 0.42,0.218 0.827,0.922 1.202,1.2 0.194,-0.09 0.517,0.052 0.718,0 0.383,-0.09 0.676,-0.825 0.961,-0.96 0.81,-0.375 1.268,-0.045 2.159,0 0.039,0.166 0.466,0.675 0.481,0.72 0.33,1.297 -0.742,1.935 0.24,2.641 0.247,-0.113 0.691,0.097 0.96,0 0.375,-0.128 0.442,-0.998 0.72,-1.2 1.283,-0.938 2.333,0 3.359,0.479 -0.029,0.705 0,1.463 0,2.16 -0.547,0.225 -1.971,0.653 -2.159,1.2 -0.098,0.27 0.112,0.712 0,0.96 0.623,-0.172 0.532,0.398 1.2,0 0.795,-0.465 0.322,-1.56 1.92,-1.44 0.938,0.075 1.83,1.125 2.159,1.92 0,0 0.593,0.322 0.241,0.48 -0.398,0.188 -0.863,0.946 -0.72,1.68 0.015,0.112 0.652,0.398 0.72,0.48 0.562,0.75 0.434,1.336 0.72,2.4 -0.211,0.165 -0.427,0.143 -0.48,0.48 -0.082,0 -0.66,-0.044 -0.721,0 l 0,0.72 c 3.286,-1.522 3.646,-0.18 6.721,0.72 0.067,0.428 0.022,1.365 0.24,1.92 0.097,0.278 0.862,0.615 0.959,0.96 0.128,0.48 -0.097,0.953 0,1.44 -0.217,0.172 -0.404,0.157 -0.48,0.48 -0.322,0 -0.921,-0.12 -1.2,0 -0.164,0.075 -0.383,0.908 -0.479,0.961 0.224,0.006 0.562,0.367 0.72,0.479 1.327,-0.892 0.809,-0.78 2.639,-0.72 -0.059,0.578 0.293,0.39 0.24,0.959 -0.029,0.248 -0.704,0.864 -0.719,0.961 -0.165,0.847 0.383,1.065 0.479,1.44 0.106,0.465 -0.127,0.99 0,1.44 0.136,0.517 0.894,0.997 1.2,1.44 -0.104,0.173 0.037,0.548 0,0.719 -0.134,0.548 -1.229,0.931 -1.679,1.201 0.585,2.003 1.32,2.648 1.679,5.04 -0.202,0.046 -0.637,0.465 -0.719,0.479 -1.44,0.323 -2.145,-1.132 -2.88,-1.679 -0.135,-0.09 -0.398,-0.592 -0.481,-0.72 -0.104,0.487 -0.269,1.628 -0.479,2.399 -0.06,0.196 -0.691,0.766 -0.721,0.961 -0.232,1.425 1.171,1.619 1.441,2.64 l 0,0.24 c -0.045,-0.18 -0.3,0.705 -0.241,0.96 0.083,0.39 1.966,3.69 0.961,4.32 -1.425,0.9 -2.295,-0.517 -3.12,-0.72 -0.143,-0.03 -0.6,0.06 -0.721,0 -0.059,0.262 -0.449,0.382 -0.479,0.48 -0.263,0.757 0,2.077 0,2.88 0.127,-0.436 0.239,0.239 0.239,0.239 -0.824,1.809 -0.651,1.351 -2.639,1.2 -0.217,-0.832 -0.72,-3.907 -1.441,-4.319 -0.576,-0.315 -1.364,0.007 -1.92,-0.24 -0.112,-0.045 -0.675,-0.705 -0.719,-0.72 -0.525,-0.112 -0.706,0.3 -0.961,0.24 0.279,0 -0.239,0.72 -0.239,0.72 -0.068,0.869 0.885,2.362 0.96,2.88 0.12,0.96 -0.36,1.763 -0.48,2.4 l 0.24,0.719 c 0.449,-0.097 0.99,0.15 1.439,0 1.125,-0.375 0.736,-2.52 2.64,-1.68 1.891,0.848 0.758,2.896 0.24,4.08 -1.259,-0.096 -1.8,-0.075 -2.88,-0.239 0.474,1.627 0.316,1.455 0,2.88 -0.224,0.029 -0.795,0.308 -1.199,0.48 0,0 -1.597,-1.552 -1.2,-1.68 1.034,-0.316 0.472,-3.06 0,-3.841 -0.353,-0.562 -1.516,-0.93 -2.16,-1.199 0.181,3.067 -0.09,2.415 1.92,4.319 -0.293,0.886 -0.218,1.11 -0.481,1.921 0.12,0.097 0.654,0.345 0.721,0.48 0.21,0.464 -0.203,0.705 0.24,0.959 0,0 -0.443,1.252 -0.48,1.44 0.24,-0.149 0.712,-0.082 0.96,-0.239 0.15,-0.09 0.33,-0.668 0.48,-0.72 0.262,-0.083 1.154,0.18 0.959,0.239 0.046,0.144 0.668,0.345 0.721,0.481 0.248,0.727 -0.255,1.92 0,2.639 0.181,0.534 1.485,0.308 1.199,1.921 -0.097,0.54 -1.071,1.095 -1.439,1.44 0.719,1.56 0.719,0.937 0.24,2.4 -0.353,1.08 -0.668,2.242 -1.68,2.64 -2.625,1.034 -2.971,-0.45 -2.639,-2.64 -0.173,-0.128 -1.149,-0.548 -1.202,-0.721 l 0,-0.48 -0.479,0 c -0.18,0.645 -0.045,1.102 -0.481,1.44 l -0.239,0.241 c 0.112,0.112 -0.068,0.562 0,0.719 l 0.239,0 c 0.923,0.465 1.298,1.373 1.921,2.16 -2.362,0.428 -2.362,1.485 -3.12,4.081 0.571,0.27 1.792,1.177 2.4,1.2 1.275,0.059 0.975,-0.668 1.44,-0.96 0.435,-0.271 0.728,0.045 1.2,-0.24 0.3,0.203 0.622,0.562 0.96,0.719 -0.179,0.705 0.068,1.185 -0.24,1.68 -0.038,0.053 -0.96,0.48 -0.96,0.48 -0.226,0.9 0.667,0.878 0.479,1.92 -0.096,0.54 -0.937,0.826 -1.2,1.201 -0.216,0.307 -0.059,0.667 -0.239,0.959 -0.42,0.675 -1.463,1.05 -2.16,1.44 0.104,0.466 -0.135,0.99 0,1.44 0.075,0.263 0.915,0.848 0.96,1.201 0.135,1.335 -1.268,2.046 -2.16,2.4 -0.488,0.194 0.66,0.531 0.96,0.479 l 0.48,-0.479 c 2.13,-0.57 1.739,1.492 1.68,2.639 -0.308,0.053 -0.345,0.435 -0.48,0.48 -1.171,0.405 -2.692,-0.923 -3.36,-1.2 l -0.481,0.72 c 0.045,0.142 0.668,0.345 0.721,0.48 0.135,0.405 0,1.013 0,1.441 0.367,-0.159 0.135,0.389 0.72,0.24 0.098,-0.024 0.352,-0.638 0.479,-0.721 1.224,-0.758 1.726,-0.157 2.641,0.481 -0.982,2.437 -1.006,3.397 -3.84,1.919 0.037,0.03 0,0.675 0,0.72 0.952,0.42 1.425,0.345 1.92,1.2 0.06,0.113 0.345,0.18 0.48,0.24 -0.113,0.262 0.09,0.698 0,0.961 -0.164,0.471 -1.087,0.921 -1.201,1.439 -0.307,1.388 0.21,2.423 0,3.841 0.234,-0.136 0.474,0.404 0.96,0 0.511,-0.429 0.069,-2.416 0,-3.361 0.458,0.068 0.87,-0.307 1.681,0 0.075,0.038 0.172,0.465 0.239,0.48 0.016,0.218 0.683,0.623 0.481,1.44 -0.015,0.06 -0.51,0.548 -0.481,0.72 0.046,0.353 1.066,0.593 0.961,1.92 -0.068,0.788 -0.878,0.555 -0.48,1.68 0.014,0.067 0.637,0.6 0.719,0.72 0,0 -0.051,0.623 -0.239,0.24 -0.15,0.083 -0.262,0.878 -0.48,0.961 -0.488,0.179 -1.395,0 -1.92,0 l 0,0.479 0.24,0 c 0.037,0.172 0.112,1.095 0.24,1.2 1.027,0.915 2.138,-0.105 3.36,0.241 0.135,0.044 0.487,0.614 0.719,0.719 0,0.218 -0.096,0.765 0,0.96 -0.795,0.983 -1.484,1.515 -2.639,2.16 0,0.3 0.142,1.2 0,1.44 -0.285,0.473 -0.757,0.15 -1.199,0.48 -0.548,0.405 -0.789,1.702 -0.961,2.4 -0.263,0.06 -0.383,0.45 -0.48,0.48 -2.992,1.035 -1.875,-2.437 -1.44,-3.6 -0.42,-0.142 -0.443,-0.015 -0.72,-0.24 -0.931,-0.735 -0.811,-0.637 -2.16,-0.24 0.179,0.293 -0.503,0.33 -0.239,0.48 1.349,0.817 0.793,2.355 0.718,4.32 l 0.721,0.24 c 1.208,2.13 0.225,1.995 -1.92,1.92 0.165,-2.408 0.51,-1.725 -1.439,-2.16 -1.253,1.823 -1.734,2.16 -4.08,2.16 -0.09,-0.203 -0.287,-0.923 -0.481,-1.2 0.09,-0.143 0.683,-0.623 0.72,-0.72 -0.128,-0.09 0,-1.02 0,-1.2 -0.667,-0.127 -0.946,-0.015 -1.441,-0.24 -0.351,1.358 -0.614,3.427 -1.199,4.56 0.705,0.562 1.162,0.923 1.68,1.68 -0.202,0.33 -0.165,0.87 -0.24,1.2 -0.164,0.03 -1.23,0.165 -0.959,0 -0.729,-0.39 -0.774,-0.06 -1.201,-0.72 -0.105,-0.15 -0.465,-1.283 -0.48,-1.44 -0.277,0.067 -0.944,0.248 -0.96,0.24 -0.143,0.195 -0.285,0.593 -0.479,0.72 -0.263,-0.172 -0.39,0.413 -0.481,0.48 1.785,1.005 1.838,0.69 1.439,2.64 -0.306,0.052 -0.344,0.435 -0.479,0.48 -0.3,0.105 -1.125,-0.195 -0.96,-0.24 l -0.48,0 c -0.352,-0.12 -0.322,-1.058 -0.72,-1.2 -0.262,-0.082 -0.72,0.135 -0.96,0 -0.3,1.117 -0.727,2.753 -1.68,3.12 -0.263,0.105 -0.487,-0.15 -0.72,0 -0.12,-0.195 -0.742,-0.367 -0.96,-0.48"
       id="path3852"
       style="fill:#FFFFFF;fill-opacity:1;fill-rule:nonzero;stroke:none" /><path
       d="m 215.19238,118.98781 c -0.006,-0.015 0.173,-0.69 0.241,-0.96 -0.263,-0.052 -0.383,-0.443 -0.48,-0.48 -0.622,-0.21 -1.455,-0.157 -1.921,-0.24 -0.179,-2.235 -0.824,-3.255 -0.72,-5.04 -0.959,1.793 -1.634,1.65 -3.12,0.48 -0.231,0.285 -0.404,1.027 -0.719,1.2 -0.773,0.435 -4.2,0.21 -5.52,0.48 -0.059,-0.255 -0.45,-0.375 -0.479,-0.48 -0.308,-0.877 0,-2.415 0,-3.36 -0.038,-0.015 -0.481,-0.24 -0.481,-0.24 -0.173,0.36 -0.45,0.48 -0.72,0.72 0.622,2.062 0.068,4.8 -2.4,3.12 -0.308,-0.202 -0.217,-0.952 -0.479,-1.2 -0.241,-0.218 -0.946,-0.367 -1.202,-0.48 0.173,-0.668 -0.067,-1.118 0.241,-1.68 0.465,-0.847 2.543,-0.72 2.879,-1.68 0.144,-0.404 -0.149,-0.787 0,-1.2 -0.082,0 -0.659,0.052 -0.718,0 -0.75,0.682 -1.021,1.117 -1.441,2.16 -0.809,0.112 -2.145,-0.045 -3.12,0.24 -0.083,0.029 -0.577,0.697 -0.721,0.72 -0.906,0.15 -1.221,-0.563 -2.159,-0.24 -0.104,0.038 -0.232,0.435 -0.479,0.48 1.259,0.72 1.154,0.6 0.959,2.4 l -0.72,0.24 c -0.202,-0.285 -0.555,-0.232 -0.72,-0.48 -0.142,-0.202 -0.068,-1.057 -0.24,-1.2 -0.57,-0.45 -1.417,0.098 -1.92,-0.72 -0.21,-0.33 -0.63,-2.272 -0.721,-2.64 -4.641,1.365 -2.917,-2.145 -5.759,-2.159 0,0 -0.6,0.224 -0.72,0.24 l 0,0.479 c 0.33,0.113 0.855,0 1.2,0 -0.112,0.075 0.203,0.42 0.24,0.48 -0.24,0.195 -0.367,0.128 -0.479,0.48 -0.969,0.18 -2.424,0.608 -3.12,0.48 -0.45,-0.075 -1.066,-0.975 -1.441,-1.2 -0.9,-0.517 -1.868,-0.48 -2.88,-0.959 -0.179,-0.076 -0.488,-0.668 -0.72,-0.721 -0.81,-0.15 -1.005,0.472 -1.68,0.24 -0.082,-0.022 -0.42,-0.63 -0.479,-0.72 -0.863,-1.095 -0.661,-1.62 0,-2.88 -0.555,-0.135 -1.088,-0.262 -1.92,-0.48 0.112,0.256 -0.098,0.697 0,0.96 0.022,0.083 0.63,0.421 0.719,0.48 -0.149,0.413 0.143,0.795 0,1.2 -0.052,0.142 -0.615,0.488 -0.719,0.72 -0.489,-0.203 -1.028,-0.158 -1.441,-0.24 -0.112,-0.96 -0.375,-2.632 -0.48,-3.6 -0.742,0 -0.682,0.098 -1.44,0 0.12,-0.337 -0.128,-0.855 0,-1.2 0.127,-0.375 1.298,-0.743 1.681,-0.96 -0.008,-0.038 -0.098,-1.342 -0.241,-0.96 -0.15,-0.248 0.098,-0.442 0,-0.719 -0.052,-0.128 -0.592,-0.495 -0.72,-0.721 l -0.479,0 c -0.361,0.766 -0.518,1.328 -0.96,1.921 -1.08,1.431 -0.893,0.584 -2.641,1.199 -0.075,0.03 -0.412,0.697 -0.48,0.721 -0.413,0.149 -0.794,-0.144 -1.2,0 -0.127,-0.256 -0.667,-0.541 -0.719,-0.721 -0.233,-0.69 0.052,-1.394 -0.241,-1.92 -0.479,-0.833 -1.628,-0.503 -2.399,-0.96 -0.938,-0.54 -1.425,-2.647 -1.68,-3.84 -1.913,0.9 -0.743,0.9 -2.64,0 0.083,-0.413 -0.121,-0.547 -0.241,-0.96 0.998,-0.712 1.021,-0.78 2.161,-0.96 -0.082,-0.03 -0.053,-0.877 -0.241,-0.96 -0.284,-0.12 -0.884,0 -1.2,0 -0.134,-0.27 -0.667,-0.705 -0.72,-0.96 -0.224,-0.967 0.428,-1.964 0.481,-2.639 0.03,-0.481 -0.263,-0.713 -0.24,-0.961 l -0.48,0 c -0.503,0.173 -0.945,1.538 -1.44,1.681 -0.773,0.224 -0.848,-0.263 -1.44,-0.241 -0.615,-2.07 -0.781,-1.904 0.719,-3.12 -0.487,-0.434 0.105,-3.135 0.241,-4.08 -0.36,0.353 -0.833,0.609 -1.2,0.961 0.495,0 -1.312,0.201 -0.721,0 -0.276,-0.233 -0.689,0 -0.959,-0.24 l 0,-0.481 c -0.75,-2.16 0.675,-2.422 1.44,-4.319 -0.082,-0.075 0.037,-0.616 0,-0.721 -0.12,-0.292 -1.276,-0.63 -1.44,-0.96 -0.12,-0.216 0.037,-0.712 0,-0.96 -0.046,-0.225 -0.705,-1.125 -0.72,-1.2 -0.121,-0.457 0.104,-0.974 0,-1.439 0.434,-0.375 1.357,-0.968 1.679,-1.441 0.263,-0.389 0.166,-0.884 0.481,-1.2 0.337,-0.337 0.907,-0.322 1.199,-0.72 0.713,-0.974 1.328,-3.464 1.681,-4.799 0.352,-0.082 0.847,-0.023 1.2,-0.241 -0.106,-0.089 -0.173,-0.615 -0.24,-0.719 -0.225,-0.316 -1.028,-0.412 -1.201,-0.721 -0.434,-0.741 0.083,-2.616 0,-3.839 0.443,-0.181 0.114,-0.016 0.241,-0.48 0.967,-0.031 1.493,-0.165 2.639,0 -0.104,-0.263 0.068,-0.683 0,-0.96 -0.209,-0.758 -1.612,-1.313 -0.719,-2.641 0.128,-0.194 0.892,-0.255 0.96,-0.479 0.337,-1.148 -0.811,-1.778 0.24,-2.401 0.285,-0.164 1.327,-0.412 1.679,-0.479 -0.097,-0.855 -0.495,-1.988 0,-2.88 0.082,-0.15 0.676,-0.323 0.72,-0.48 0.151,-0.562 -0.224,-1.381 0,-1.92 0.053,-0.135 0.354,-0.12 0.481,-0.241 0.644,-0.569 1.267,-0.479 1.92,-0.959 0.232,-0.173 0.067,-0.442 0.24,-0.72 0.937,-1.522 2.213,-0.668 3.359,0 -0.135,-1.672 -0.194,-2.295 -0.479,-3.84 0.172,-0.045 1.44,-0.352 1.199,-0.24 0.66,0.435 1.426,0.285 1.681,1.201 0.06,0.254 -0.127,0.742 0,0.959 0.12,0.224 0.87,0.09 0.96,0.24 0.089,-0.195 -0.053,-0.518 0,-0.72 0.038,-0.15 0.697,-0.645 0.719,-0.721 0.082,-0.382 -0.322,-1.386 -0.239,-1.439 -0.15,-0.045 -0.45,-0.405 -0.48,-0.481 0.044,-0.037 0,-0.651 0,-0.719 1.184,-0.518 1.507,-0.682 3.359,-0.481 0,-0.141 -0.097,-1.138 0,-1.199 -0.194,-0.285 -0.683,-0.48 -0.959,-0.72 0.075,-0.218 0,-0.719 0,-0.961 0.345,-0.133 0.314,-0.396 0.479,-0.719 1.313,0.248 1.396,0.224 2.161,0.719 0.224,0.151 1.042,0.503 1.199,0.721 0.42,0.615 0.098,1.32 0.72,1.68 0.3,0.179 0.847,-0.09 1.2,0 l 0.48,0.479 c 1.253,0.293 0.795,-0.096 1.681,-0.239 -0.128,-0.391 0,-1.02 0,-1.44 -0.661,-0.24 -1.365,-0.488 -1.92,-0.72 0.045,-0.398 0.239,-1.68 0.239,-1.68 0.375,-0.053 0.758,-0.375 1.441,-0.24 0.329,0.067 0.877,0.765 1.2,0.96 1.492,0.945 2.354,0.375 4.079,0.96 0.098,0.037 0.218,0.428 0.48,0.48 -0.105,0.532 0.217,1.207 0,1.68 l -0.24,0 c -0.435,0 -0.878,0.547 -1.199,0.72 0,0.443 0.097,1.012 0,1.439 0.217,0.188 0.344,0.721 0.719,0.721 l 0.24,0 c 0.45,-0.428 1.02,-1.5 1.68,-1.68 0.27,-0.067 0.69,0.105 0.961,0 -0.286,-0.878 -0.196,-1.216 -0.481,-2.16 0.863,-0.375 2.303,-1.178 3.6,-0.48 1.163,0.637 0.345,1.567 0.24,2.16 -0.112,0.623 0.27,0.892 0.24,1.2 1.598,0.098 2.955,0.345 4.56,0.96 0.075,0.038 0.173,0.465 0.24,0.479 l 0.48,0 c 0.352,0.586 -0.03,1.38 0.24,2.161 0.173,0.525 0.975,0.788 1.2,1.2 0.248,0.488 0.03,0.735 0.24,1.2 1.035,-0.037 3.233,-0.143 4.32,0.48 0.488,0.285 0.743,1.11 1.201,1.44 0.209,0.165 0.463,-0.09 0.718,0 1.561,0.607 0.503,2.168 0,2.88 0.833,0.225 2.386,0.457 2.641,1.2 0.128,0.39 -0.188,1.102 0,1.439 l 0.24,0 c 0.96,0.488 1.643,1.449 2.4,2.16 0.247,-0.112 0.69,0.098 0.96,0 0.586,-0.202 0.712,-1.439 2.16,-0.959 0.173,0.06 0.457,0.599 0.719,0.72 -0.224,0.367 -0.014,0.884 -0.239,1.199 -0.112,0.151 -1.328,0.668 -1.44,0.96 -0.105,0.263 0.149,0.488 0,0.72 2.258,0.593 2.684,0.488 2.399,3.121 0.811,0.509 1.598,0.645 2.401,1.199 0.248,0.18 0.195,0.534 0.479,0.721 -0.172,1.125 -0.464,2.617 0.481,3.12 1.755,0.938 2.302,-0.555 3.12,-0.72 1.005,-0.195 1.125,0.375 1.679,0.48 -0.059,0.577 0.293,0.39 0.241,0.959 -0.023,0.226 -0.533,0.766 -0.48,1.2 0.008,0.113 0.697,0.675 0.72,0.72 0.105,0.286 -0.136,0.458 0,0.721 -0.383,0.179 -1.028,0.495 -1.441,0.719 0.699,1.515 0.609,2.034 0,3.601 0.781,-0.428 1.546,-0.849 2.401,-1.2 -0.06,-0.008 1.208,-0.024 1.44,0 0.18,0.412 0.914,2.684 1.199,2.88 0.616,0.442 1.508,0.089 2.161,0.479 0.509,0.316 0.203,1.359 0,1.2 0.104,0.391 -0.127,0.833 0,1.201 0.03,0.104 0.427,0.232 0.479,0.479 1.891,-0.143 2.175,0 3.36,0.48 0.188,1.726 0.203,2.445 -0.96,3.361 -0.12,0.089 -0.674,0.345 -0.719,0.479 -0.181,0.525 0.082,1.133 0,1.68 0.382,0.112 0.389,-0.195 0.48,0.24 0.397,-0.173 0.795,0.18 1.199,0 0.308,-0.135 0.203,-1.011 0.481,-1.199 1.409,-0.96 3.202,-0.301 3.6,0.959 0.285,0.93 -0.128,0.907 -0.241,1.68 l -0.479,0 0.24,1.921 c -0.855,-0.06 -0.99,-0.038 -1.44,0 -0.151,0.412 0.142,0.795 0,1.199 -0.06,0.158 -0.63,0.338 -0.721,0.48 -0.255,0.412 -0.029,0.743 -0.239,1.2 0.262,0.143 0.434,0.653 0.719,0.72 0.158,0.045 0.563,-0.105 0.72,0 0.442,0.323 0.698,1.508 1.2,1.68 0.54,0.203 1.575,-0.023 2.16,0 0.375,1.298 0.81,2.333 1.201,3.36 -0.181,0.12 -0.256,0.833 -0.48,0.96 -0.466,0.27 -1.081,0.248 -1.44,0.48 -1.404,0.9 1.575,1.605 2.159,2.161 0.225,0.224 0,0.734 0.241,0.959 -0.263,0.06 -3.263,0.66 -3.36,0.721 -0.128,0.082 -0.819,1.875 -0.96,2.159 1.199,0.39 1.349,0.645 2.159,1.2 -0.352,0.315 -0.33,0.907 -0.719,1.2 -0.338,0.255 -0.549,0.12 -0.961,0.24 0.008,0.045 -0.179,0.878 -0.239,1.201 0.75,0.352 1.289,0.599 1.919,0.959 -0.127,0.345 0.12,0.863 0,1.2 -0.06,0.157 -0.63,0.338 -0.719,0.48 -0.323,0.518 -0.525,1.44 -0.72,1.92 -0.128,-0.397 -0.241,0.72 -0.241,0.72 1.029,0.599 0.279,2.01 -0.96,1.92 l -0.479,-0.48 c -0.458,-0.225 -0.795,-0.3 -1.2,-0.48 -0.008,-0.037 -0.031,-1.56 0,-1.44 0.142,-0.299 0.607,-0.487 0.719,-0.72 0.241,-0.51 0.09,-0.99 0.241,-1.44 -0.534,0.465 -0.954,0.72 -1.44,1.2 -0.413,-0.142 -0.795,0.151 -1.201,0 -0.299,-0.097 -0.667,-1.094 -0.96,-1.2 -0.412,-0.142 -0.795,0.151 -1.199,0 -0.03,0.052 -0.24,0.481 -0.24,0.481 -0.121,-0.369 -0.24,0.914 -0.24,0.959 0.052,0.046 0.697,0.427 0.72,0.48 0.172,0.608 -0.293,0.915 -0.24,1.2 l -0.48,0 c -0.323,-0.105 -0.631,-1.215 -0.961,-1.44 -0.164,-0.105 -0.554,0.046 -0.719,0 -0.165,-0.037 -0.787,-0.66 -0.96,-0.72 -1.44,-0.458 -2.752,-0.479 -4.56,-0.479 -0.428,-0.893 -0.397,-0.864 -0.721,-2.161 -0.037,0 -0.719,0.015 -0.719,0 -0.052,0.578 -0.24,1.718 -0.24,2.64 0.539,0.188 0.743,0.112 1.44,0.24 -0.083,1.08 -0.083,2.37 -0.481,3.6 1.133,-0.21 1.246,-0.36 2.401,0 l 0.24,0.48 c 0.412,0.165 1.237,0 1.68,0 -0.045,0.225 0.33,0.473 0.239,0.96 -0.188,1.005 -1.574,1.92 -2.159,2.64 -0.255,-0.352 0.008,-0.6 -0.24,-0.96 -0.188,-0.263 -0.465,-0.038 -0.72,-0.24 -0.285,-0.21 -0.495,-0.907 -0.72,-1.2 -0.046,0.068 -0.653,0.173 -0.721,0.24 -0.209,0.203 -0.149,0.645 -0.239,0.96 -0.256,0.053 -0.383,0.45 -0.48,0.48 -0.893,0.307 -1.38,-0.315 -1.92,-0.48 l -0.24,0.24 c 0.083,1.447 -0.083,1.628 -0.241,2.64 -0.187,0 -0.801,-0.097 -0.959,0 -0.195,-0.307 -0.833,-0.563 -0.961,-0.96"
       id="path3850"
       style="fill:#FFFFFF;fill-opacity:1;fill-rule:nonzero;stroke:none" /><path
       d="m 137.43538,88.26881 c 0.404,-0.871 0.389,-2.266 2.159,-1.681 0.173,0.06 0.458,0.601 0.72,0.721 0,0.344 -0.113,0.892 0,1.199 -0.225,0.173 -0.788,0.893 -0.961,0.96 -0.262,0.105 -0.487,-0.149 -0.719,0 -0.33,-0.397 -0.863,-0.779 -1.199,-1.199"
       id="path3838"
       style="fill:#FFFFFF;fill-opacity:1;fill-rule:nonzero;stroke:none" /><path
       d="m 142.71438,68.34781 c 0.074,-0.104 0,-0.599 0,-0.72 0.255,-0.119 0.727,-0.668 0.96,-0.719 2.565,-0.577 1.522,1.844 1.2,2.639 -0.211,0 -0.78,-0.09 -0.961,0 -0.299,-0.382 -0.906,-0.801 -1.199,-1.2"
       id="path3836"
       style="fill:#FFFFFF;fill-opacity:1;fill-rule:nonzero;stroke:none" /><path
       d="m 140.31438,49.62781 c 0.105,-0.412 0,-1.004 0,-1.439 2.37,-0.6 1.5,-1.216 2.16,1.2 -0.217,0.172 -0.405,0.157 -0.48,0.48 -0.398,0.12 -0.645,0.045 -0.961,0.24 -0.052,-0.136 -0.576,-0.368 -0.719,-0.481"
       id="path3834"
       style="fill:#FFFFFF;fill-opacity:1;fill-rule:nonzero;stroke:none" /><path
       d="m 16.71638,41.22881 c 0.345,-0.098 1.32,-1.351 0,-0.96 -0.33,0.097 -0.668,1.154 0,0.96"
       id="path3828"
       style="fill:#FFFFFF;fill-opacity:1;fill-rule:nonzero;stroke:none" /><path
       d="m 18.87538,41.22881 c 0.038,-0.135 0.675,-0.338 0.721,-0.48 0.127,-0.435 -0.008,-0.6 -0.241,-0.72 0,0 0.405,-1.155 0.48,-1.44 -0.352,0.247 -0.532,0.113 -0.96,0.24 -0.06,0.315 -0.45,0.54 -0.48,0.719 -0.127,0.684 0.405,1.261 0.48,1.681"
       id="path22"
       style="fill:#FFFFFF;fill-opacity:1;fill-rule:nonzero;stroke:none" /><path
       d="m 152.44178,9.62921 0.935,0 c 0.96,0 1.271,0.275 1.271,0.84 0,0.491 -0.239,0.767 -1.139,0.767 l -1.067,0 0,-1.607 z m 0,-2.878 -0.792,0 0,5.132 1.967,0 c 1.223,0 1.823,-0.455 1.823,-1.463 0,-0.923 -0.576,-1.319 -1.344,-1.415 l 1.464,-2.254 -0.864,0 -1.367,2.231 -0.887,0 0,-2.231 z m 0.947,6.296 c -2.063,0 -3.658,-1.596 -3.658,-3.718 0,-2.171 1.595,-3.742 3.658,-3.742 2.039,0 3.634,1.571 3.634,3.742 0,2.122 -1.595,3.718 -3.634,3.718 m 0,0.72 c 2.423,0 4.497,-1.884 4.497,-4.438 0,-2.578 -2.074,-4.462 -4.497,-4.462 -2.447,0 -4.521,1.884 -4.521,4.462 0,2.554 2.074,4.438 4.521,4.438"
       id="path26"
       style="fill:#FFFFFF;fill-opacity:1;fill-rule:nonzero;stroke:none" /></g></svg>